<svg width="22" height="22" viewBox="0 0 22 22" fill="none" xmlns="http://www.w3.org/2000/svg">
<path d="M1.3999 8.69995C1.3999 7.37447 2.47442 6.29995 3.7999 6.29995H18.1999C19.5254 6.29995 20.5999 7.37447 20.5999 8.69995V16.8999C20.5999 18.2254 19.5254 19.2999 18.1999 19.2999H3.7999C2.47442 19.2999 1.3999 18.2254 1.3999 16.8999V8.69995Z" fill="#333333"/>
<path d="M7 18.6999V6.89995M14.5999 18.6999V6.89995M7.3999 6.29995V3.89995C7.3999 3.23721 7.93716 2.69995 8.5999 2.69995H12.7999C13.4626 2.69995 13.9999 3.23721 13.9999 3.89995V6.29995M3.7999 19.2999H18.1999C19.5254 19.2999 20.5999 18.2254 20.5999 16.8999V8.69995C20.5999 7.37447 19.5254 6.29995 18.1999 6.29995H3.7999C2.47442 6.29995 1.3999 7.37447 1.3999 8.69995V16.8999C1.3999 18.2254 2.47442 19.2999 3.7999 19.2999Z" stroke="#333333" stroke-width="1.5" stroke-linecap="round"/>
<path d="M7 8L7 17" stroke="white" stroke-width="1.5" stroke-linecap="round" stroke-linejoin="round"/>
<path d="M14.5 8L14.5 17" stroke="white" stroke-width="1.5" stroke-linecap="round" stroke-linejoin="round"/>
</svg>
