<svg width="22" height="22" viewBox="0 0 22 22" fill="none" xmlns="http://www.w3.org/2000/svg">
<path d="M2.0625 7.70972H16.9375M3.98512 1.60034V3.19429M14.8125 1.60034V3.19409M14.8125 3.19409H4.1875C2.42709 3.19409 1 4.62118 1 6.38159V17.0067C1 18.7671 2.42709 20.1942 4.1875 20.1942H17M14.8125 3.19409C16.5729 3.19409 18 4.62118 18 6.38159V12.1003M4.71875 11.4285H14.2812M4.71875 15.6785H13" stroke="#6A6A6A" stroke-width="1.5" stroke-linecap="round" stroke-linejoin="round"/>
<path d="M18.5 17.3503C18.9142 17.3503 19.25 17.0146 19.25 16.6003C19.25 16.1861 18.9142 15.8503 18.5 15.8503V17.3503ZM17 16.6003H16.25C16.25 17.0146 16.5858 17.3503 17 17.3503V16.6003ZM17.75 15.1003C17.75 14.6861 17.4142 14.3503 17 14.3503C16.5858 14.3503 16.25 14.6861 16.25 15.1003H17.75ZM18.5 15.8503H17V17.3503H18.5V15.8503ZM17.75 16.6003V15.1003H16.25V16.6003H17.75ZM20.25 16.2C20.25 17.9949 18.7949 19.45 17 19.45V20.95C19.6234 20.95 21.75 18.8233 21.75 16.2H20.25ZM17 19.45C15.2051 19.45 13.75 17.9949 13.75 16.2H12.25C12.25 18.8233 14.3766 20.95 17 20.95V19.45ZM13.75 16.2C13.75 14.405 15.2051 12.95 17 12.95V11.45C14.3766 11.45 12.25 13.5766 12.25 16.2H13.75ZM17 12.95C18.7949 12.95 20.25 14.405 20.25 16.2H21.75C21.75 13.5766 19.6234 11.45 17 11.45V12.95Z" fill="#6A6A6A"/>
</svg>
