<svg width="22" height="22" viewBox="0 0 22 22" fill="none" xmlns="http://www.w3.org/2000/svg">
<path d="M19.7907 17.7941C19.7907 17.7941 18.615 18.9361 18.3269 19.2708C17.8575 19.7661 17.3045 20 16.5796 20C16.5099 20 16.4356 20 16.3659 19.9954C14.9857 19.9083 13.7031 19.3763 12.7412 18.9223C10.111 17.6657 7.80139 15.8818 5.88216 13.6209C4.29753 11.7361 3.23801 9.99338 2.53631 8.12229C2.10413 6.98038 1.94614 6.0907 2.01584 5.25146C2.06231 4.7149 2.27143 4.27006 2.65713 3.88943L4.24177 2.32561C4.46947 2.11465 4.71111 2 4.94811 2C5.24088 2 5.47787 2.17427 5.62658 2.32102C5.63123 2.32561 5.63587 2.33019 5.64052 2.33478C5.92399 2.59618 6.19351 2.86675 6.47698 3.15567C6.62104 3.30242 6.76975 3.44917 6.91845 3.60051L8.18709 4.85248C8.67967 5.3386 8.67967 5.78803 8.18709 6.27414C8.05232 6.40713 7.92221 6.54013 7.78744 6.66853C7.39709 7.06293 7.70374 6.76031 7.29945 7.11802C7.29015 7.12719 7.28086 7.13178 7.27621 7.14095C6.87657 7.53535 6.95092 7.92057 7.03456 8.18197C7.03921 8.19573 7.04386 8.20949 7.04851 8.22324C7.37844 9.01203 7.84315 9.75496 8.54949 10.6401L8.55414 10.6446C9.83672 12.2039 11.189 13.4192 12.6807 14.3501C12.8712 14.4694 13.0664 14.5657 13.2523 14.6574C13.4196 14.7399 13.5776 14.8179 13.7123 14.9004C13.7309 14.9096 13.7495 14.9234 13.7681 14.9325C13.9261 15.0105 14.0748 15.0472 14.2282 15.0472C14.6139 15.0472 14.8555 14.8087 14.9345 14.7308L15.8454 13.8318C16.0034 13.6759 16.2543 13.4879 16.5471 13.4879C16.8352 13.4879 17.0722 13.6668 17.2163 13.8227C17.2209 13.8273 17.2209 13.8273 17.2255 13.8318L19.7861 16.3587C20.2647 16.8265 19.7907 17.7941 19.7907 17.7941Z" fill="white" stroke="white" stroke-width="1.5" stroke-linecap="round" stroke-linejoin="round"/>
</svg>
