<svg width="22" height="22" viewBox="0 0 22 22" fill="none" xmlns="http://www.w3.org/2000/svg">
<g clip-path="url(#clip0_191_72)">
<path d="M13.4999 2.73444L12.7363 2.05851C11.745 1.18102 10.2548 1.18102 9.26351 2.05851L8.4999 2.73444C8.06187 3.12218 7.50667 3.35215 6.92276 3.38772L5.90485 3.44971C4.58341 3.53019 3.5297 4.5839 3.44922 5.90534L3.38723 6.92325C3.35167 7.50716 3.12169 8.06236 2.73395 8.50039L2.05802 9.264C1.18053 10.2553 1.18053 11.7455 2.05802 12.7368L2.73395 13.5004C3.12169 13.9384 3.35167 14.4936 3.38723 15.0775L3.44922 16.0954C3.5297 17.4169 4.58342 18.4706 5.90485 18.5511L6.92276 18.6131C7.50667 18.6486 8.06187 18.8786 8.4999 19.2663L9.26351 19.9423C10.2548 20.8198 11.745 20.8198 12.7363 19.9423L13.4999 19.2663C13.9379 18.8786 14.4931 18.6486 15.077 18.6131L16.0949 18.5511C17.4164 18.4706 18.4701 17.4169 18.5506 16.0954L18.6126 15.0775C18.6481 14.4936 18.8781 13.9384 19.2659 13.5004L19.9418 12.7368C20.8193 11.7455 20.8193 10.2553 19.9418 9.26399L19.2659 8.50039C18.8781 8.06236 18.6481 7.50715 18.6126 6.92325L18.5506 5.90534C18.4701 4.5839 17.4164 3.53019 16.0949 3.44971L15.077 3.38772C14.4931 3.35215 13.9379 3.12218 13.4999 2.73444Z" fill="#9AA2F0" stroke="#6977F9" stroke-width="2"/>
<path d="M12.0033 15.06V6.84H10.7333L8.06328 8.9L8.93328 10.06L10.4333 8.91V15.06H12.0033Z" fill="white"/>
</g>
<defs>
<clipPath id="clip0_191_72">
<rect width="22" height="22" fill="white"/>
</clipPath>
</defs>
</svg>
