<svg width="22" height="22" viewBox="0 0 22 22" fill="none" xmlns="http://www.w3.org/2000/svg">
<g clip-path="url(#clip0_191_27)">
<path d="M21.0001 11C21.0001 16.5228 16.523 21 11.0001 21C5.47727 21 1.00012 16.5228 1.00012 11C1.00012 5.47715 5.47727 1 11.0001 1C16.523 1 21.0001 5.47715 21.0001 11Z" fill="white" stroke="#DDDDDD"/>
<path d="M7.25 15.2921H14.75C15.4404 15.2921 16 14.7345 16 14.0468V8.9409C16 8.25312 15.4404 7.69557 14.75 7.69557H13.5L12.625 6.20117H9.375L8.5 7.69557H7.25C6.55964 7.69557 6 8.25312 6 8.9409V14.0468C6 14.7345 6.55964 15.2921 7.25 15.2921Z" fill="#999999" stroke="#999999" stroke-linejoin="round"/>
<circle cx="11" cy="11.2012" r="2" fill="white"/>
</g>
<defs>
<clipPath id="clip0_191_27">
<rect width="22" height="22" fill="white"/>
</clipPath>
</defs>
</svg>
