<svg width="22" height="22" viewBox="0 0 22 22" fill="none" xmlns="http://www.w3.org/2000/svg">
<path d="M11 8.48V11.4218C11 11.6127 11.0759 11.7959 11.2109 11.9309L12.8 13.52M2 6.32V5.6C2 3.61178 3.61177 2 5.6 2H6.32M15.68 2L16.4 2C18.3882 2 20 3.61178 20 5.6V6.32M5.24 17.48L2.72 20M19.28 20L16.76 17.48M18.92 11.72C18.92 16.0941 15.3741 19.64 11 19.64C6.6259 19.64 3.08 16.0941 3.08 11.72C3.08 7.3459 6.6259 3.8 11 3.8C15.3741 3.8 18.92 7.3459 18.92 11.72Z" stroke="#6A6A6A" stroke-width="1.5" stroke-linecap="round"/>
</svg>
