<svg width="22" height="22" viewBox="0 0 22 22" fill="none" xmlns="http://www.w3.org/2000/svg">
<path d="M8.30547 4.02992L9.4196 2.42882C9.60655 2.16017 9.91313 2 10.2404 2H11.7607C12.0868 2 12.3924 2.15898 12.5796 2.426L13.6817 3.99829M8.30547 4.02992C7.9933 4.47528 7.47441 4.69351 6.92366 4.6546M8.30547 4.02992C7.99178 4.47421 7.47441 4.69532 6.92366 4.6546M6.92366 4.6546L4.95057 4.53073C4.62972 4.51059 4.31875 4.64592 4.11484 4.89445L3.15556 6.06358C2.93936 6.32708 2.87225 6.68255 2.97752 7.00673L3.55088 8.77254M3.55088 8.77254C3.63092 9.03204 3.64116 9.31004 3.58388 9.5726M3.55088 8.77254C3.63205 9.03158 3.64192 9.30902 3.5835 9.57529M3.58388 9.5726C3.52585 9.83206 3.40144 10.077 3.21671 10.2754M3.58388 9.5726L3.5835 9.57529M3.21671 10.2754L1.91579 11.6746C1.6874 11.9202 1.59737 12.264 1.67605 12.5901L2.0132 13.9872C2.09163 14.3122 2.32727 14.5765 2.64117 14.6916L4.42859 15.3467C4.685 15.4459 4.90652 15.6072 5.07417 15.8104M3.21671 10.2754C3.40257 10.0787 3.52585 9.83447 3.5835 9.57529M5.07417 15.8104C5.24069 16.0141 5.3541 16.26 5.3981 16.5263M5.07417 15.8104C5.2422 16.0141 5.35599 16.2594 5.3981 16.5263M5.07417 15.8104L5.07151 15.8075C5.06052 15.7941 5.04876 15.7802 5.03738 15.7673M5.3981 16.5263L5.70248 18.396C5.75574 18.7232 5.9677 19.0027 6.26837 19.1423L7.63909 19.7788C7.93016 19.9139 8.2684 19.9011 8.54846 19.7444L10.2263 18.8058M10.2263 18.8058C10.4649 18.6717 10.7311 18.6046 10.9974 18.6042M10.2263 18.8058C10.3207 18.752 10.4197 18.7091 10.5214 18.6769C10.6757 18.628 10.8366 18.6039 10.9974 18.6042M10.9974 18.6042C11.1358 18.6045 11.2743 18.6228 11.4093 18.659C11.5349 18.6926 11.657 18.7416 11.7727 18.8058M10.9974 18.6042C11.2648 18.6039 11.5326 18.6711 11.7727 18.8058M11.7727 18.8058L13.5311 19.7576C13.8123 19.9099 14.1495 19.9185 14.4381 19.7806L15.8024 19.129C16.102 18.9859 16.311 18.7034 16.3603 18.3751L16.6327 16.5602M16.6327 16.5602C16.6748 16.2924 16.7867 16.0446 16.9529 15.8391M16.6327 16.5602C16.6733 16.2918 16.786 16.0444 16.9529 15.8391M16.9529 15.8391C17.1179 15.6357 17.3367 15.4736 17.5916 15.3734M16.9529 15.8391C17.1175 15.6349 17.3356 15.4724 17.5916 15.3734M17.5916 15.3734L19.3991 14.665C19.707 14.5443 19.9354 14.2791 20.0091 13.9567L20.3327 12.5399C20.4061 12.2183 20.3162 11.8812 20.0924 11.6388L18.7826 10.2206M18.7826 10.2206C18.5945 10.0215 18.4633 9.78369 18.3995 9.53096M18.7826 10.2206C18.6942 10.1276 18.6184 10.0259 18.5566 9.91817C18.486 9.7958 18.4333 9.66554 18.3995 9.53096M18.3995 9.53096C18.3369 9.28004 18.3407 9.01414 18.42 8.75677L18.9859 6.94295C19.0863 6.62115 19.0178 6.27042 18.8037 6.01004L17.8697 4.87406C17.6634 4.62317 17.3482 4.48809 17.0242 4.51182L15.0749 4.6546M15.0749 4.6546C14.8011 4.67394 14.5318 4.62177 14.292 4.50955M15.0749 4.6546C14.8007 4.67505 14.5318 4.62247 14.292 4.50955M14.292 4.50955C14.0508 4.39589 13.8391 4.22111 13.6817 3.99829M14.292 4.50955C14.0504 4.39631 13.8384 4.22199 13.6817 3.99829M3.5835 9.57529L3.58426 9.57135M14.0474 11.0096C14.0474 12.688 12.6561 14.0486 10.9401 14.0486C9.22414 14.0486 7.83285 12.688 7.83285 11.0096C7.83285 9.3311 9.22414 7.97048 10.9401 7.97048C12.6561 7.97048 14.0474 9.3311 14.0474 11.0096Z" stroke="#333333" stroke-width="1.5"/>
</svg>
