<svg width="22" height="22" viewBox="0 0 22 22" fill="none" xmlns="http://www.w3.org/2000/svg">
<path d="M17.8881 12.6133C19.101 13.5195 20.185 15.8011 20.185 17.207C20.185 17.645 19.8654 18 19.4713 18H19.0366M14.4428 8.89882C15.2274 8.44495 15.7553 7.59662 15.7553 6.625C15.7553 5.65338 15.2274 4.80505 14.4428 4.35118M2.52372 18H15.0963C15.4905 18 15.81 17.645 15.81 17.207C15.81 14.454 13.51 12.2222 8.81 12.2222C4.11 12.2222 1.81 14.454 1.81 17.207C1.81 17.645 2.12954 18 2.52372 18ZM11.435 6.625C11.435 8.07475 10.2597 9.25 8.81 9.25C7.36025 9.25 6.185 8.07475 6.185 6.625C6.185 5.17525 7.36025 4 8.81 4C10.2597 4 11.435 5.17525 11.435 6.625Z" stroke="#9AA2F0" stroke-width="2" stroke-linecap="round"/>
</svg>
