<svg width="22" height="22" viewBox="0 0 22 22" fill="none" xmlns="http://www.w3.org/2000/svg">
<path d="M11 19H6C4.89542 19 3.99999 18.1046 4 17L4.00008 4.99999C4.00008 3.89543 4.89552 3 6.00008 3H15.0003C16.1049 3 17.0003 3.89543 17.0003 5.00001V9.00002M18 17.5L19 18.5M7.50032 7.00001H13.5003M7.50032 10H13.5003M7.50032 13H10.5003M18.5 15.5C18.5 16.8807 17.3808 18 16 18C14.6193 18 13.5 16.8807 13.5 15.5C13.5 14.1193 14.6193 13 16 13C17.3808 13 18.5 14.1193 18.5 15.5Z" stroke="#6A6A6A" stroke-width="1.5" stroke-linecap="round" stroke-linejoin="round"/>
</svg>
