<svg width="40" height="40" viewBox="0 0 40 40" fill="none" xmlns="http://www.w3.org/2000/svg">
<path d="M31.8822 19.4104L16.0662 11.7421C14.9827 11.2168 13.8311 12.3243 14.3137 13.4275L17.2141 20.0571C17.359 20.3882 17.359 20.7647 17.2141 21.0958L14.3137 27.7254C13.8311 28.8286 14.9827 29.9361 16.0662 29.4108L31.8822 21.7424C32.8561 21.2702 32.8561 19.8827 31.8822 19.4104Z" fill="#DDDDDD"/>
<path d="M32.4039 20.5764L17.3228 20.5764M16.0662 11.7421L31.8822 19.4104C32.8561 19.8827 32.8561 21.2702 31.8822 21.7424L16.0662 29.4108C14.9827 29.9361 13.8311 28.8286 14.3137 27.7254L17.2141 21.0958C17.359 20.7647 17.359 20.3882 17.2141 20.0571L14.3137 13.4275C13.8311 12.3243 14.9827 11.2168 16.0662 11.7421Z" stroke="#DDDDDD" stroke-linecap="round"/>
<path d="M24 21.25C24.4142 21.25 24.75 20.9142 24.75 20.5C24.75 20.0858 24.4142 19.75 24 19.75V21.25ZM15 21.25H24V19.75H15V21.25Z" fill="white"/>
</svg>
