<svg width="20" height="20" viewBox="0 0 20 20" fill="none" xmlns="http://www.w3.org/2000/svg">
<path d="M0.749634 10.0002C0.749634 4.89161 4.891 0.750244 9.99963 0.750244C15.1083 0.750244 19.2496 4.89161 19.2496 10.0002C19.2496 15.1089 15.1083 19.2502 9.99963 19.2502C4.891 19.2502 0.749634 15.1089 0.749634 10.0002Z" fill="white" stroke="#DDDDDD" stroke-width="1.5" stroke-linecap="round"/>
<path d="M6.5 12.5002L8.04763 13.8268C9.1711 14.7898 10.8289 14.7898 11.9524 13.8268L13.5 12.5002" stroke="#999999" stroke-width="1.5" stroke-linecap="round"/>
<path d="M7.16569 6.89966H7.07007V7.19626H7.16569V6.89966Z" fill="white"/>
<path d="M12.9151 6.89966H12.8301V7.19626H12.9151V6.89966Z" fill="white"/>
<path d="M7.16569 6.89966H7.07007V7.19626H7.16569V6.89966Z" stroke="#888888" stroke-width="1.5" stroke-linecap="round" stroke-linejoin="round"/>
<path d="M12.9151 6.89966H12.8301V7.19626H12.9151V6.89966Z" stroke="#888888" stroke-width="1.5" stroke-linecap="round" stroke-linejoin="round"/>
</svg>
