<svg width="18" height="16" viewBox="0 0 18 16" fill="none" xmlns="http://www.w3.org/2000/svg">
<path d="M8.62004 1.03524C8.77496 0.721327 9.22258 0.721327 9.37751 1.03524L11.383 5.09883C11.4445 5.22348 11.5635 5.30988 11.701 5.32987L16.1855 5.9815C16.5319 6.03184 16.6702 6.45755 16.4195 6.7019L13.1746 9.86496C13.075 9.96199 13.0296 10.1018 13.0531 10.2388L13.8191 14.7051C13.8783 15.0501 13.5162 15.3132 13.2063 15.1504L9.19531 13.0416C9.07227 12.977 8.92528 12.977 8.80224 13.0416L4.79123 15.1504C4.48138 15.3132 4.11925 15.0501 4.17842 14.7051L4.94446 10.2388C4.96796 10.1018 4.92253 9.96199 4.82299 9.86496L1.57802 6.7019C1.32735 6.45755 1.46567 6.03184 1.81209 5.9815L6.29653 5.32987C6.43409 5.30988 6.55301 5.22348 6.61453 5.09883L8.62004 1.03524Z" fill="#F6C84A" stroke="#F6C84A" stroke-linejoin="round"/>
</svg>
