<svg width="40" height="40" viewBox="0 0 40 40" fill="none" xmlns="http://www.w3.org/2000/svg">
<path d="M15.7116 6.77319C17.6547 3.5424 22.3382 3.5424 24.2813 6.77319L37.0903 28.0716C39.0945 31.4042 36.6943 35.6485 32.8055 35.6485H7.18743C3.29865 35.6485 0.898415 31.4042 2.90262 28.0716L15.7116 6.77319Z" fill="white"/>
<path d="M20.8325 24.5781H18.7085L18.4745 14.0661H21.0665L20.8325 24.5781ZM19.7705 29.4741C18.9605 29.4741 18.3125 28.8261 18.3125 28.0161C18.3125 27.2061 18.9605 26.5401 19.7705 26.5401C20.5805 26.5401 21.2285 27.2061 21.2285 28.0161C21.2285 28.8261 20.5805 29.4741 19.7705 29.4741Z" fill="#254AAD"/>
</svg>
