<svg width="26" height="26" viewBox="0 0 26 26" fill="none" xmlns="http://www.w3.org/2000/svg">
<path d="M22.7674 20.549C22.7674 20.549 21.4611 21.8178 21.141 22.1898C20.6195 22.7401 20.0051 23 19.1996 23C19.1221 23 19.0395 23 18.9621 22.9949C17.4285 22.8981 16.0035 22.307 14.9346 21.8025C12.0122 20.4064 9.44598 18.4242 7.31352 15.9121C5.55281 13.8178 4.37556 11.8815 3.5959 9.80255C3.11571 8.53376 2.94015 7.54522 3.0176 6.61274C3.06923 6.01656 3.30159 5.52229 3.73014 5.09936L5.49085 3.36178C5.74385 3.12739 6.01235 3 6.27568 3C6.60097 3 6.8643 3.19363 7.02953 3.35669C7.03469 3.36178 7.03986 3.36688 7.04502 3.37197C7.35999 3.66242 7.65946 3.96306 7.97443 4.28408C8.13449 4.44713 8.29972 4.61019 8.46494 4.77834L9.87454 6.16943C10.4219 6.70955 10.4219 7.20892 9.87454 7.74904C9.7248 7.89682 9.58023 8.04458 9.43049 8.18726C8.99677 8.62548 9.33748 8.28924 8.88827 8.68669C8.87795 8.69688 8.86762 8.70198 8.86245 8.71217C8.41841 9.15038 8.50102 9.57841 8.59396 9.86885C8.59912 9.88414 8.60429 9.89943 8.60945 9.91471C8.97605 10.7911 9.49238 11.6166 10.2772 12.6001L10.2824 12.6052C11.7075 14.3376 13.21 15.688 14.8674 16.7224C15.0791 16.8548 15.296 16.9618 15.5025 17.0638C15.6884 17.1555 15.864 17.2421 16.0137 17.3338C16.0344 17.344 16.055 17.3593 16.0757 17.3695C16.2512 17.4561 16.4164 17.4969 16.5868 17.4969C17.0154 17.4969 17.2839 17.2319 17.3717 17.1453L18.3838 16.1465C18.5593 15.9732 18.8381 15.7643 19.1634 15.7643C19.4836 15.7643 19.7469 15.9631 19.9069 16.1363C19.9121 16.1414 19.9121 16.1414 19.9173 16.1465L22.7623 18.9541C23.2941 19.4739 22.7674 20.549 22.7674 20.549Z" fill="#999999" stroke="#999999" stroke-linecap="round" stroke-linejoin="round"/>
</svg>
