<svg width="22" height="22" viewBox="0 0 22 22" fill="none" xmlns="http://www.w3.org/2000/svg">
<g clip-path="url(#clip0_191_65)">
<path d="M20.6 11.0004C20.6 16.3023 16.302 20.6004 11 20.6004C5.69809 20.6004 1.40002 16.3023 1.40002 11.0004C1.40002 5.69846 5.69809 1.40039 11 1.40039C16.302 1.40039 20.6 5.69846 20.6 11.0004Z" fill="#9AA2F0" stroke="#6977F9" stroke-width="2"/>
<path d="M11.923 6.84H8.49297V15.06H10.063V11.98H11.923C13.533 11.98 14.753 11.18 14.753 9.41C14.753 7.66 13.533 6.84 11.923 6.84ZM10.063 10.6V8.22H11.843C12.713 8.22 13.183 8.65 13.183 9.41C13.183 10.17 12.713 10.6 11.843 10.6H10.063Z" fill="white"/>
</g>
<defs>
<clipPath id="clip0_191_65">
<rect width="22" height="22" fill="white"/>
</clipPath>
</defs>
</svg>
