<svg width="56" height="56" viewBox="0 0 56 56" fill="none" xmlns="http://www.w3.org/2000/svg">
<path d="M1.47629 28.0012C1.47629 13.3531 13.3509 1.47852 27.999 1.47852C42.6471 1.47852 54.5217 13.3531 54.5217 28.0012C54.5217 42.6493 42.6471 54.524 27.999 54.524C13.3509 54.524 1.47629 42.6493 1.47629 28.0012Z" fill="#F2F4F7" stroke="#999999" stroke-width="1.5" stroke-linecap="round"/>
<path d="M23.2076 32.9824C18.8856 34.2849 15.5066 37.2995 14.1827 41.0746C13.4646 43.1225 14.9524 45.0488 17.0816 45.3545C19.3706 45.6832 22.898 45.9992 28 45.9992C33.1019 45.9992 36.6294 45.6832 38.9183 45.3545C41.0475 45.0488 42.5354 43.1225 41.8173 41.0746C40.4934 37.2995 37.1144 34.2849 32.7923 32.9824" fill="#DDDDDD"/>
<path d="M23.2076 32.9824C18.8856 34.2849 15.5066 37.2995 14.1827 41.0746C13.4646 43.1225 14.9524 45.0488 17.0816 45.3545C19.3706 45.6832 22.898 45.9992 28 45.9992C33.1019 45.9992 36.6294 45.6832 38.9183 45.3545C41.0475 45.0488 42.5354 43.1225 41.8173 41.0746C40.4934 37.2995 37.1144 34.2849 32.7923 32.9824" stroke="#999999" stroke-width="1.5" stroke-linecap="round"/>
<path d="M39.8785 22.0001C39.8785 28.6276 34.5603 34.0002 28 34.0002C21.4397 34.0002 16.1216 28.6276 16.1216 22.0001C16.1216 15.3726 21.4397 10 28 10C34.5603 10 39.8785 15.3726 39.8785 22.0001Z" fill="white"/>
<path d="M39.8785 22.0001C33.3182 22.0001 28 16.6275 28 10C28 16.6275 22.6819 22.0001 16.1216 22.0001" fill="white"/>
<path d="M31.3939 27.5716C29.9091 29.8574 26.091 29.8574 24.6062 27.5716H31.3939Z" fill="white"/>
<path d="M23.7577 22.8573V23.2858V22.8573Z" fill="white"/>
<path d="M32.2431 22.8573V23.2858V22.8573Z" fill="white"/>
<path d="M39.8785 22.0001C39.8785 28.6276 34.5603 34.0002 28 34.0002C21.4397 34.0002 16.1216 28.6276 16.1216 22.0001M39.8785 22.0001C39.8785 15.3726 34.5603 10 28 10M39.8785 22.0001C33.3182 22.0001 28 16.6275 28 10M16.1216 22.0001C16.1216 15.3726 21.4397 10 28 10M16.1216 22.0001C22.6819 22.0001 28 16.6275 28 10M31.3939 27.5716C29.9091 29.8574 26.091 29.8574 24.6062 27.5716M23.7577 22.8573V23.2858M32.2431 22.8573V23.2858" stroke="#999999" stroke-width="1.5" stroke-linecap="round"/>
</svg>
