<svg width="22" height="22" viewBox="0 0 22 22" fill="none" xmlns="http://www.w3.org/2000/svg">
<path d="M12.2808 19.3681C14.4229 17.2059 18.5 12.6054 18.5 8.91246C18.5 4.76312 15.1421 1.39941 11 1.39941C6.85786 1.39941 3.5 4.76312 3.5 8.91246C3.5 12.6054 7.57709 17.2059 9.71919 19.3681C10.4337 20.0893 11.5663 20.0893 12.2808 19.3681Z" fill="#333333" stroke="#333333" stroke-width="1.5"/>
<path d="M6 19.999H16" stroke="#333333" stroke-width="1.5" stroke-linecap="round"/>
<path d="M13.3916 8.4C13.3916 9.72548 12.319 10.8 10.9958 10.8C9.67263 10.8 8.59998 9.72548 8.59998 8.4C8.59998 7.07452 9.67263 6 10.9958 6C12.319 6 13.3916 7.07452 13.3916 8.4Z" fill="white" stroke="white" stroke-width="1.5"/>
</svg>
