<svg width="22" height="22" viewBox="0 0 22 22" fill="none" xmlns="http://www.w3.org/2000/svg">
<path d="M9.71919 19.3681C10.4337 20.0893 11.5663 20.0893 12.2808 19.3681C14.4229 17.2059 18.5 12.6054 18.5 8.91246C18.5 4.76312 15.1421 1.39941 11 1.39941C6.85786 1.39941 3.5 4.76312 3.5 8.91246C3.5 12.6054 7.57709 17.2059 9.71919 19.3681Z" stroke="#333333" stroke-width="1.5"/>
<path d="M13.3961 8.59957C13.3961 9.92505 12.3235 10.9996 11.0003 10.9996C9.67712 10.9996 8.60447 9.92505 8.60447 8.59957C8.60447 7.27408 9.67712 6.19957 11.0003 6.19957C12.3235 6.19957 13.3961 7.27408 13.3961 8.59957Z" stroke="#333333" stroke-width="1.5"/>
<path d="M6 19.999H16" stroke="#333333" stroke-width="1.5" stroke-linecap="round"/>
</svg>
