<svg width="18" height="18" viewBox="0 0 18 18" fill="none" xmlns="http://www.w3.org/2000/svg">
<path d="M7.72593 15.1204C8.43253 15.8494 9.56747 15.8494 10.2741 15.1204C12.0355 13.3034 15 9.82696 15 7.01043C15 3.69096 12.3137 1 9 1C5.68629 1 3 3.69096 3 7.01043C3 9.82696 5.96448 13.3034 7.72593 15.1204Z" fill="#6977F9"/>
<path d="M10.9169 6.76012C10.9169 7.82051 10.0588 8.68012 9.00025 8.68012C7.9417 8.68012 7.08358 7.82051 7.08358 6.76012C7.08358 5.69974 7.9417 4.84012 9.00025 4.84012C10.0588 4.84012 10.9169 5.69974 10.9169 6.76012Z" fill="white"/>
<path d="M7.72593 15.1204C8.43253 15.8494 9.56747 15.8494 10.2741 15.1204C12.0355 13.3034 15 9.82696 15 7.01043C15 3.69096 12.3137 1 9 1C5.68629 1 3 3.69096 3 7.01043C3 9.82696 5.96448 13.3034 7.72593 15.1204Z" stroke="#6977F9"/>
<path d="M10.9169 6.76012C10.9169 7.82051 10.0588 8.68012 9.00025 8.68012C7.9417 8.68012 7.08358 7.82051 7.08358 6.76012C7.08358 5.69974 7.9417 4.84012 9.00025 4.84012C10.0588 4.84012 10.9169 5.69974 10.9169 6.76012Z" stroke="#6977F9"/>
<circle cx="9" cy="7" r="3" fill="white"/>
</svg>
