<svg width="20" height="20" viewBox="0 0 20 20" fill="none" xmlns="http://www.w3.org/2000/svg">
<path d="M18.9674 12.2689C19.369 12.3705 19.6149 12.7796 19.4835 13.1724C18.8171 15.1645 17.5376 16.9029 15.819 18.1326C13.8964 19.5082 11.5486 20.1583 9.1923 19.9673C6.83596 19.7764 4.62348 18.7568 2.94747 17.0896C1.27146 15.4223 0.240319 13.2152 0.0370384 10.8599C-0.166242 8.50458 0.471483 6.15343 1.83704 4.22366C3.2026 2.29389 5.20768 0.910314 7.49645 0.31846C9.78521 -0.273394 12.2097 -0.0352471 14.3395 0.990638C16.2434 1.90769 17.8019 3.40118 18.7997 5.24963C18.9964 5.61412 18.8243 6.05931 18.4461 6.22821C18.0679 6.39711 17.6272 6.22543 17.4256 5.86357C16.5758 4.33788 15.2729 3.10516 13.6886 2.34204C11.8782 1.47004 9.81743 1.26762 7.87198 1.77069C5.92653 2.27377 4.22221 3.44981 3.06149 5.09011C1.90076 6.73041 1.35869 8.7289 1.53148 10.7309C1.70427 12.7329 2.58074 14.609 4.00535 16.0261C5.42996 17.4433 7.31057 18.3099 9.31345 18.4722C11.3163 18.6345 13.3119 18.082 14.9462 16.9127C16.3763 15.8894 17.4487 14.4517 18.0246 12.803C18.1611 12.4119 18.5659 12.1673 18.9674 12.2689Z" fill="#333333"/>
<path d="M16 6H19V3" stroke="#333333" stroke-width="1.5" stroke-linecap="round" stroke-linejoin="round"/>
<path d="M13.8486 9.048L14.2726 7.272H13.1206L12.6726 9.232H11.1926L10.7126 7.272L9.52863 7.28L9.05663 9.232H7.56863L7.12063 7.272H5.96863L6.39263 9.048H5.60862V10.392H6.72063L7.55263 13.848H8.99263L9.88863 10.208H10.3526L11.2486 13.848H12.6886L13.5206 10.392H14.6326V9.048H13.8486ZM7.79263 10.208H8.81663L8.28863 12.368L7.79263 10.208ZM12.4486 10.208L11.9526 12.368L11.4246 10.208H12.4486Z" fill="#333333"/>
</svg>
