<svg width="23" height="22" viewBox="0 0 23 22" fill="none" xmlns="http://www.w3.org/2000/svg">
<path d="M10.9 20.5998H4.89999C3.5745 20.5998 2.49999 19.5253 2.5 18.1998L2.50009 3.79989C2.5001 2.47441 3.57462 1.3999 4.90009 1.3999H15.7004C17.0258 1.3999 18.1004 2.47442 18.1004 3.7999V8.5999M19.3 18.7999L20.5 19.9999M6.70037 6.1999H13.9004M6.70037 9.7999H13.9004M6.70037 13.3999H10.3004M19.9 16.3999C19.9 18.0568 18.5569 19.3999 16.9 19.3999C15.2431 19.3999 13.9 18.0568 13.9 16.3999C13.9 14.743 15.2431 13.3999 16.9 13.3999C18.5569 13.3999 19.9 14.743 19.9 16.3999Z" stroke="#333333" stroke-width="1.5" stroke-linecap="round" stroke-linejoin="round"/>
</svg>
