<svg width="32" height="32" viewBox="0 0 32 32" fill="none" xmlns="http://www.w3.org/2000/svg">
<path d="M15.249 2.24288C15.555 1.62282 16.4392 1.62282 16.7452 2.24288L20.7067 10.2697C20.8282 10.516 21.0631 10.6866 21.3348 10.7261L30.193 12.0133C30.8773 12.1127 31.1505 12.9536 30.6554 13.4363L24.2455 19.6843C24.0489 19.876 23.9592 20.1521 24.0056 20.4228L25.5187 29.2451C25.6356 29.9266 24.9203 30.4464 24.3083 30.1246L16.3853 25.9592C16.1422 25.8315 15.8519 25.8315 15.6088 25.9592L7.68587 30.1246C7.07383 30.4464 6.3585 29.9266 6.47539 29.2451L7.98854 20.4228C8.03496 20.1521 7.94524 19.876 7.74861 19.6843L1.33879 13.4363C0.843635 12.9536 1.11687 12.1127 1.80115 12.0133L10.6593 10.7261C10.931 10.6866 11.1659 10.516 11.2875 10.2697L15.249 2.24288Z" fill="#DDDDDD" stroke="#DDDDDD" stroke-linejoin="round"/>
</svg>
