<svg width="22" height="22" viewBox="0 0 22 22" fill="none" xmlns="http://www.w3.org/2000/svg">
<g clip-path="url(#clip0_13_33)">
<path d="M20.5999 10.9997C20.5999 16.3016 16.3018 20.5997 10.9999 20.5997C5.69797 20.5997 1.3999 16.3016 1.3999 10.9997C1.3999 5.69772 5.69797 1.39966 10.9999 1.39966C16.3018 1.39966 20.5999 5.69772 20.5999 10.9997Z" stroke="#6A6A6A" stroke-width="1.5"/>
<path d="M15.5608 9.06L16.0908 6.84H14.6508L14.0908 9.29H12.2408L11.6408 6.84L10.1608 6.85L9.57078 9.29H7.71078L7.15078 6.84H5.71078L6.24078 9.06H5.26078V10.74H6.65078L7.69078 15.06H9.49078L10.6108 10.51H11.1908L12.3108 15.06H14.1108L15.1508 10.74H16.5408V9.06H15.5608ZM7.99078 10.51H9.27078L8.61078 13.21L7.99078 10.51ZM13.8108 10.51L13.1908 13.21L12.5308 10.51H13.8108Z" fill="#6A6A6A"/>
</g>
<defs>
<clipPath id="clip0_13_33">
<rect width="22" height="22" fill="white"/>
</clipPath>
</defs>
</svg>
