<svg width="97" height="16" viewBox="0 0 97 16" fill="none" xmlns="http://www.w3.org/2000/svg">
<g clip-path="url(#clip0_449_3881)">
<path d="M10.4701 7.97294C12.4859 8.58625 13.391 9.79481 13.391 11.4002C13.391 14.4126 11.0049 15.7294 7.54916 15.7294H0V0.901917H6.74693C10.1821 0.901917 12.5888 2.21871 12.5888 5.177C12.5888 6.36753 11.9923 7.39572 10.4701 7.97294ZM6.72636 3.39121H3.22948V7.1071H6.72636C8.37195 7.1071 9.40045 6.47576 9.40045 5.23112C9.40045 3.93236 8.37195 3.39121 6.72636 3.39121ZM3.22948 13.2401H7.52859C9.17418 13.2401 10.2027 12.6449 10.2027 11.3461C10.2027 10.0474 9.17418 9.41601 7.52859 9.41601H3.22948V13.2401Z" fill="#333333"/>
<path d="M23.3827 11.4724V4.78016H26.6122V15.7294H23.5884L23.465 14.5028C22.745 15.3867 21.552 16 20.0504 16C17.582 16 15.3399 14.2683 15.3399 11.3461V4.78016H18.5693V11.2379C18.5693 12.9876 19.7418 13.4386 20.976 13.4386C22.2102 13.4386 23.3827 12.7351 23.3827 11.4724Z" fill="#333333"/>
<path d="M31.2991 3.17475C30.2911 3.17475 29.4889 2.47125 29.4889 1.58737C29.4889 0.703494 30.2911 0 31.2991 0C32.307 0 33.1092 0.703494 33.1092 1.58737C33.1092 2.47125 32.307 3.17475 31.2991 3.17475ZM32.9241 15.7294H29.6946V4.78016H32.9241V15.7294Z" fill="#333333"/>
<path d="M39.2268 15.7294H35.9973V0.901917H39.2268V15.7294Z" fill="#333333"/>
<path d="M50.2497 6.00676V0.901917H53.4792V15.7294H50.4554L50.3114 14.4487C49.3652 15.4588 48.0282 16 46.5883 16C44.0582 16 41.5898 14.0338 41.5898 10.6967V9.79481C41.5898 6.51184 44.0582 4.50958 46.5883 4.50958C48.0076 4.50958 49.3035 5.03269 50.2497 6.00676ZM47.5551 13.4205C49.0155 13.4205 50.2497 12.5908 50.2497 10.6426V9.86697C50.2497 7.91883 49.0155 7.08906 47.5551 7.08906C46.0535 7.08906 44.8193 7.91883 44.8193 9.86697V10.6426C44.8193 12.5908 46.0535 13.4205 47.5551 13.4205Z" fill="#333333"/>
<path d="M60.2747 15.2424L61.3854 12.8253C62.0025 13.1139 62.7431 13.3664 63.5247 13.3664C64.5532 13.3664 65.2526 12.717 65.2526 11.6708L65.2937 0.901917H68.5232L68.4821 11.6347C68.4615 14.7373 66.5073 16 63.5247 16C62.2288 16 61.1797 15.6573 60.2747 15.2424Z" fill="#333333"/>
<path d="M76.7809 16C73.6131 16 70.8979 14.2864 70.8979 10.8771V9.61443C70.8979 6.22322 73.6131 4.50958 76.7809 4.50958C79.9692 4.50958 82.6845 6.22322 82.6845 9.61443V10.8771C82.6845 14.2864 79.9692 16 76.7809 16ZM76.7809 13.4205C78.2002 13.4205 79.455 12.6268 79.455 10.823V9.68658C79.455 7.88275 78.2002 7.08906 76.7809 7.08906C75.3821 7.08906 74.1274 7.88275 74.1274 9.68658V10.823C74.1274 12.6268 75.3821 13.4205 76.7809 13.4205Z" fill="#333333"/>
<path d="M91.9427 4.50958C94.4728 4.50958 96.9412 6.51184 96.9412 9.79481V10.6967C96.9412 14.0338 94.4728 16 91.9427 16C90.5028 16 89.1657 15.4588 88.2195 14.4487L88.0755 15.7294H85.0518V0.901917H88.2812V6.00676C89.2275 5.03269 90.5234 4.50958 91.9427 4.50958ZM93.7117 10.6426V9.86697C93.7117 7.91883 92.4775 7.08906 90.9759 7.08906C89.5154 7.08906 88.2812 7.91883 88.2812 9.86697V10.6426C88.2812 12.5908 89.5154 13.4205 90.9759 13.4205C92.4775 13.4205 93.7117 12.5908 93.7117 10.6426Z" fill="#333333"/>
</g>
<defs>
<clipPath id="clip0_449_3881">
<rect width="97" height="16" fill="white"/>
</clipPath>
</defs>
</svg>
