<svg width="16" height="16" viewBox="0 0 16 16" fill="none" xmlns="http://www.w3.org/2000/svg">
<path d="M14 0.5H5C4.175 0.5 3.5 1.175 3.5 2V11C3.5 11.825 4.175 12.5 5 12.5H14C14.825 12.5 15.5 11.825 15.5 11V2C15.5 1.175 14.825 0.5 14 0.5ZM7.625 6.125C7.625 6.7475 7.1225 7.25 6.5 7.25H5.75V8.75H4.625V4.25H6.5C7.1225 4.25 7.625 4.7525 7.625 5.375V6.125ZM11.375 7.625C11.375 8.2475 10.8725 8.75 10.25 8.75H8.375V4.25H10.25C10.8725 4.25 11.375 4.7525 11.375 5.375V7.625ZM14.375 5.375H13.25V6.125H14.375V7.25H13.25V8.75H12.125V4.25H14.375V5.375ZM5.75 6.125H6.5V5.375H5.75V6.125ZM2 3.5H0.5V14C0.5 14.825 1.175 15.5 2 15.5H12.5V14H2V3.5ZM9.5 7.625H10.25V5.375H9.5V7.625Z" fill="#8C1A11"/>
</svg>
